<svg viewbox="0 0 181.8 78.1" xml:space="preserve">
            <path class="yellow" d="M70.3,65.9V33.3H37.5v14.1l0.5,0.3h16.3v9.2L70.3,65.9L70.3,65.9z M15.9,35.3L0.3,26.5l0,0.1h0      C5.3,11.2,19.6,0,37.9,0c13.6,0,21.8,3.7,29.7,10.4L57.1,23c-5.8-4.9-11-7.7-19.7-7.7C26.4,15.3,17.6,24,15.9,35.3z"></path>
            <path class="white" d="M8.8,42.3c-0.3-0.5-0.2-0.8,0.1-1.1c0.4-0.5,0.5-0.2,0.7-0.8c-0.4-0.3-0.4,0-1-0.1c-0.2-0.7,0.2-1.3-0.1-2.2      c-0.7,0.1-0.6,0.4-0.5,1.2c0.2,1.2-0.2,0.7-0.7,0.8c-0.7,0.1,0,0.7,0.2,0.9c0.6,0.6,0.5,1,0.5,1c0,0,0,0.1,0,0.1c0,0,0,0.1,0,0.1      c-0.7,0.3-1.5-0.5-2.3-0.1c0.1,0.6,0.7,0.3,1.1,0.8c-0.4,0.3-0.3-0.1-0.4,0.4c0.6,0.4,0.6-0.1,1.4,0c0.4,1.8-3.1-0.2-3.8,0.2      C4,43.9,4.1,43.7,4.3,44C4,44.3,4,44.1,3.8,44.5c0.4,0.2,0.6-0.1,1.2-0.2c-0.2,0.6-0.2,0.3-0.6,0.6c-0.1,0.1-0.2,0.1-0.2,0.3      c-0.1,0.6-0.1,0.1,0.1,0.3c0.4,0.2,1.2-0.6,1.7-0.8c-0.2,0.6-0.8,0.5-0.6,1c0.2,0.2,1.2-0.3,1.6-0.3c-0.4,1.6-3.6,0.8-4.4,0.9      c0.1,0.8,0.9,0.6,1.3,1c-0.4,0.2-0.6,0.3-0.8,0.8c0.9,0,1-0.3,1.7-0.4c-0.1,0.4-0.1,0.3-0.4,0.7c-0.1,0.1-0.1,0.2-0.2,0.3      c0,0,0,0.1,0,0.1c0,0,0,0.1,0,0.1c0,0,0,0.1,0,0.1c0,0,0,0.1,0,0.1C5.3,49.3,5.9,48,7,48.1c0,0.8-0.4,1-1.1,1.3      c-0.6,0.2-1.3,0.3-1.4,1l1.2-0.2c-0.2,0.4-0.4,0.2-0.3,0.7c0.8,0,0.7-0.5,1.4-0.6c-0.3,1.6-3.7,1.5-5.1,1.1      c-0.4-0.1-1.5-0.5-1.7-0.2l0,0l0.1,0.5c0.2,0.1,0.4,0.1,0.7,0.2c-0.1,0.2-0.3,0.4-0.4,0.5L0.6,53c0.6,0,1.1-0.7,1.8-0.4      c-0.2,0.5-1.1,0.7-1.6,1.2l0.2,0.6c0.6-0.1,1.2-0.7,1.8-0.8C2.7,54.3,2,54.5,2,55.3c0.8,0.1,0.6-0.5,1.5-0.5l0.2,0.9      c1.1,0.1,0.6-1,1-1.7c0.7,0.2,0,0.3,0.7,0.6c0.6-0.4-0.1-0.9,0.8-0.9c0.7,1.3-1.1,2.7-1.9,3.1c-0.4,0.2-1.2,0.3-2,0.5      c0.7,1.5,1.6,2.9,2.5,4.3c0-0.6-0.1-1.1,0.7-1.1c0.3,0.6,0.1,1.3-0.2,1.8c2,2.9,4.5,5.4,7.2,7.6c0-0.1,0-0.1,0.1-0.2      c0.4,0.2,0.6,0.4,0.6,0.7c1,0.7,2,1.4,3.1,2.1c0-0.5-0.7-1.1-0.4-1.7c0.7-0.3,0.8,0.3,1.1,0.6c0.9,0.6,0.7-0.3,0.8-0.8      c0.7,0.1,1.2,1,2,0.6c0-0.6-0.5-0.6-0.8-1l0-0.3c0-0.7,1.8,0.5,2.4,0c0.8-0.7-1-1.1-1.4-1.3c0.2-0.5,0.2-0.2,0.3-0.6      c-1.1-1.2-4.3-0.1-5-1.7c1,0,0.9,0.5,2.2,0.3c-0.1-0.5-0.2-0.5-0.4-0.9c0,0,0.1,0,0.1,0l0.2-0.1c0.2-0.1,0.1,0,0.3-0.1      c0.4-0.1,0.3,0,0.5-0.3c-0.1-0.2,0-0.1-0.3-0.2c-1.3-0.5-5.5-0.4-5.9-1.7c0.6-0.4,0.3-0.1,0.4-0.1c0.4-0.1,0.8,0.1,1.2-0.1      c0-1.2-3.4-1-2.5-2.8c1.1-0.5,0.4,1.6,2,1.5L13,60.3c0.6-0.1,0.7,0.2,0.8,0.8c0.1,0.5,0.1,0.8,0.6,1c0.4-0.3,0.2-0.8,0.5-1.2      c0.3,0.4,0.3,2.2,1.4,2.1l0.1-1c0.8-0.2,0.6,0.5,1.5,0.5c0.3-1.3-1.1-1.1-0.7-2c0.1-0.1-0.1,0,0.3-0.1c0.3-0.1-0.2,0,0.2,0      c0.2,0,0.3,0.1,0.5,0.1c0.5,0.1,0.5,0.1,0.9,0c0.2-0.5,0.1-0.2,0.1-0.4c-0.1-0.9-3.7-1.5-4.3-1.7c0.4-0.2,0.3,0,0.4-0.4      c-0.3-0.6-2.5-0.8-3.3-1.2c-0.7-0.4-2.3-1.3-2.3-2.2c1-0.3,0.5,0.9,1.5,0.7c0.1-0.7-0.4-1,0-1.6c0.9,0.5,0.3,2,1.5,1.9      c0.2-0.4,0.2-0.8,0.4-1.4c0.7,0.1,1.1,1.5,2.2,1.3c0.2-0.8-1-1.1-1-2.1c0.7,0.2,1.1,0.8,2.1,0.7c0-1-0.8-0.4-0.4-1.2      c0.5-0.3,0.7,0,1.2-0.3c-0.1-1-1.9-0.4-3.2-0.5c0.2-0.2,0.6-0.2,0.7-0.6c-1.3-0.6-4.6,0.6-5-1.1c0.6,0,0.9,0.2,1.3,0      c0-0.8-0.9-0.3-1-1c0.7-0.3,1.2,0.6,2,0.3c0.1-0.9-0.7-0.3-0.9-1.3c0.9,0.1,1.5,0.9,2.4,0.4c-0.1-0.4-0.2-0.4-0.7-0.6      c-0.4-0.1-0.5-0.1-0.6-0.4c0.7-0.5,1.6,0.4,1.9-0.6c-0.9-0.4-3.8-0.1-4.4-0.9c0.2-0.3-0.1,0,0.2-0.3c0.7-0.5,1.5,0.3,2.3,0      c0.1-0.7-0.4-0.6-0.9-0.9c0.4-0.3,0.7,0.2,1.4-0.1c0-0.6-0.2-0.2-0.7-0.6c0.2-0.6,0.5-0.3,0.6-0.8c-0.6-0.3-1.3,0.4-1.8,0.5      c-0.6,0.1-0.2-0.4-0.9-0.2c-0.4,0.1-0.5,0.4-0.9,0c-0.3-0.3,0.1-0.6,0.4-0.7c0.6-0.1,0.6,0.3,1,0c-0.1-0.3-0.1-0.2-0.4-0.4      c0.4-0.3,0.5,0,0.6-0.5C9.8,41.9,9.5,42.8,8.8,42.3z"></path>
            <path class="white" d="M33.9,76.8L33.9,76.8c0.1-0.3,0.2-0.5,0.5-0.6c0.2,0.1,0.1,0.3,0.3,0.4c0.5-0.6,0.7-1.3,1.4-1.8      C35.7,76,34,77,34,77.8c0.4,0,0.2,0,0.5-0.1c0,0.1,0,0.3,0,0.4c1.1,0.1,2.3,0.1,3.5,0.1c1.3,0,2.5,0,3.7-0.1v0l0,0      c2.1-0.2,4.2-0.4,6.2-0.8c-0.1-0.1-0.3,0-0.5,0c-0.9,0-1.8,0-2.7-0.1c0.1-0.2,0.2-0.2,0.2-0.5c-0.3-0.3-0.9-0.4-1.4-0.6      c-1.3-0.5-2.5-1.3-3-2.8c0.8,0.4,0.8,1.4,1.4,1.6c0.1-0.3,0-0.4,0.2-0.5c0.2,0.3,0.6,0.8,1,0.8c0.2,0,0.2,0,0.2,0      c0.2-1-1.5-0.8-0.8-1.8c1.3-0.3,0.7,1.2,1.4,1.7c0.3-0.2,0.1-0.3,0.5-0.6c0.2,0.2,0.1,0.1,0.2,0.3c0.1,0.3,0.1,0.8,0.6,0.7      c0.2-0.4,0-0.3,0-0.7c0.5,0,0.6,0.4,0.9,0.1c0.6-0.6-1.6-1-1.7-2c0.5,0.1,0.7,0.3,1,0.5c0.3,0.2,0.7,0.4,1.1,0.2      c0.2-0.6-0.5-0.3-0.7-0.8c0.5-0.2,1.7,0,1.4-0.7c-0.2-0.3-0.9,0-1.3-0.1c-1.9-0.3-5.8-1.2-5.4-3.6c0.7,0.1,0.5,1.6,1.4,1.6      c0.1-0.7-0.5-1-0.5-1.8c1,0.4,0.8,1.8,1.5,2.2c0.2-0.2,0.2-0.6,0.3-0.7c0.3,0.6,0.3,1.4,1,1.4l-0.1-1c0.4,0.1,1.1,0.6,1.5,0.3      c0.4-0.4-0.2-0.6-0.6-0.7c-0.4-0.1-0.7-0.3-1-0.5c-0.5-0.4-1.3-0.9-1-2c0.9,0.1,0.5,1.6,1.7,1.5c0.1-0.6-0.3-0.8-0.3-1.4      c0.5,0.3,0.4,0.9,1.3,0.7c0-0.5-0.3-0.7-0.4-1.2c0.5-0.1,0.8,0.3,1.5,0.1c0.2-0.8-0.5-0.6-1.1-0.7c-0.5,0-1-0.1-1.3-0.4      c0.2-0.1,0.5,0,0.7-0.2c-0.4-0.9-2.1-0.4-3-0.8c-0.7-0.3-1.4-1.2-1.5-2.1c0.9,0.1,0.6,1.7,1.6,1.6c0.1-0.5-0.1-0.6,0-1.1      c0.6,0.2,0.7,1.6,1.4,1.2c0.1-0.1,0.1-0.3,0-0.3c0-0.3-0.2-0.4-0.3-0.7c0.4,0.2,1.1,0.9,1.6,0.5c-0.1-0.3-0.3-0.4-0.5-0.6      c0.4-0.3,1.3-0.2,1.5-0.7c-0.4-0.3-1,0-1.4,0.1c-1.3,0.2-0.9-0.1-0.9-0.6c-0.7-0.3-1.2,0-1.9-0.3c-0.5-0.2-1.1-0.5-1.1-1.1      c0.4,0,0.8,0.4,1.2,0.1c0.3-0.9-1.6-0.5-1.5-1.5c0.8-0.2,2.6,1.3,2.4,0.5c0-0.1,0,0-0.1-0.1c-0.2-0.2-0.5-0.3-0.6-0.6      c0.4-0.1,1.1-0.1,1.2-0.6c-0.4-0.5-1.1,0.1-1.9,0c-0.5-0.1-1.5-0.2-1.6-0.8c0.6-0.4,1,0.5,1.7,0.3c0-0.5-0.2-0.1-0.2-0.6      c0.6,0,0.9,0.4,1.3,0.2c0.3-0.5-0.3-0.4-0.5-0.8c0.2-0.6,0.9-0.1,0.9-0.9c-0.7,0-1.4,0.4-1.9,0.6c-0.5,0.2-1.8,0.3-1.4-0.6      c0.3-0.4,0.7,0,1.3-0.1c0-0.5-0.2-0.3-0.3-0.6c0.4-0.4,0.8-0.1,0.8-0.8c-0.8-0.1-1.4,0.6-1.9,0.3c0-0.7,1.1-0.5,0.7-1.1      c-0.5-0.2-0.2,0.4-0.9,0.3c-0.2-0.7,0.5-2.3-0.2-3c-0.6,0-0.9,0.5-0.7,1.2c0.1,0.6,0.4,0.8,0.2,1.5c-0.7,0.1-0.6-0.4-1.1-0.1      c0,0.4,0.3,0.4,0.6,0.6c0.3,0.2,0.5,0.3,0.3,0.7c-0.7,0.6-1.6-0.8-2.4-0.4c-0.1,0.6,0.6,0.6,1.2,0.7c0,0.5-0.3,0.3-0.4,0.8      c0.5,0,0.7-0.3,1.2-0.3l0.3,0.1c0.2,0.6-0.4,0.5-0.6,0.8c-0.5,0.5,0.3,0.5,0.6,0.6c-0.3,0.7-1.5,0-1.9-0.2c-0.3-0.1-1.5-0.9-1.7-0.7      c-0.3,0.3,0.5,0.8,0.7,1c0,0,0,0-0.1,0c0,0,0,0-0.1,0c-0.3,0.1-0.4,0.1-0.4,0.4c0.3,0.1,0.3,0,0.6,0.1l0.1,0      c-0.2,0.2-0.2,0.2-0.5,0.3c-0.2,0.1-0.3,0.2-0.3,0.4c0.3,0.1,0.7-0.1,1-0.2c0.3-0.2,0.4-0.4,0.9-0.4c-0.1,0.6-0.3,0.2-0.3,0.7      c0.7,0.1,1-0.3,1.7-0.4c0,1.7-2.3,0.7-3.2,1.1c0,0.4,0.4,0.4,0.7,0.5l0.2,0.1c-0.2,0.3-0.5,0.4-0.5,0.8c0.4,0,0.5-0.1,0.8-0.3      c0.9-0.6,1,0.1,0.5,0.5c-0.2,0.2-0.5,0.2-0.7,0.4l0.2,0.2c0.2,0.2,0-0.1,0.2,0.1c-0.2,0.2-0.3,0.3-0.3,0.6c1.3,0,1-1.3,1.7-1.5      c0.8-0.2,0.1,1.1-0.3,1.4c-0.4,0.3-0.9,0.6-1.4,0.7c-2.1,0.7-2.5,0.2-3.8,0.5c-0.1,0.7,0.5,0.4,0.9,0.8c0,0.8-0.7,0.3-0.9,1.1      c1.1,0,1.2-0.8,1.9-0.7c0,0.9-1.3,1.1-1.4,1.8c0.6,0,1-0.5,1.3-0.8l0.1,0.4c0.1,0.5,0.6,0.3,0.7-0.1c0.1-0.7-0.1-1,0.2-1.6      c1,0.1,0.1,0.9,0.4,1.7c0.5,0.1,1-0.9,1.2-0.7c0.2,0.5-0.6,0.6-0.7,1.2c1,0.1,1-1,1.6-1.1c-0.1,0.8-0.4,1.2-1,1.5      c-2.7,1.6-5.7,1-5.6,1.8c0.2,0.5,0.4,0.2,0.9,0.4c-0.2,0.5-0.7,0.4-0.5,0.8c0.1,0.1-0.2,0.1,0.2,0.1c0.2,0,0.4-0.1,0.6-0.3      c0.3-0.2,0.5-0.4,0.8-0.2c-0.3,0.6-1.8,0.9-1.6,1.7c0.6,0.2,0.7-0.2,1.1-0.5c0.1,0.1,0,0,0.1,0.2c0,0,0,0,0,0.1c0,0,0,0,0,0.1      c0.1,0.2,0,0.1,0.1,0.3c0.9-0.1,0-1.5,0.8-1.6c0.5-0.1,0.2,0.6,0.5,0.9c0.5-0.1,0.4-0.5,0.4-0.9c0-0.4,0-1.1,0.5-0.7      c0.2,0.3,0,0.5,0.1,1c0.7,0.1,1.1-1.4,1.8-1.6c-0.2,0.6-0.8,0.4-0.8,1.1c0.4,0.2,0.2-0.1,0.4,0.1c-1,1.1-3.2,2-4.7,2.6      c-0.5,0.2-1.4,0.4-1.4,1c0.6,0.1,0.6-0.1,1-0.1c0,0.6-0.6,0.4-0.6,1.2c1,0,1.1-0.9,1.7-1.1c-0.1,0.5-0.4,0.9-0.2,1.3      c0.5,0,0.5-0.4,0.7-0.8c0.4-0.9,0.7-0.8,0.7-0.3c0,0.3-0.2,0.4-0.2,0.8c0.5-0.1,1.1-1.5,1.5-1c0.5,0.8-1.8,2.5-2.6,2.7      c0,0,0,0-0.1-0.1c-0.5,0.1-1.6,0.3-1.6,0.8c0.3,0.2,0.1,0.1,0.4,0.1l0.4,0c-0.1,0.4-0.3,0.5-0.8,0.6c-1.2,0.3-1.9,0-2.1,0.2      c1.2,0.3,2.5,0.5,3.8,0.6c0.1-0.1,0.1-0.2,0.2-0.4l0.3,0c0,0.2,0,0.3,0,0.4c0.4,0,0.8,0.1,1.2,0.1C33.8,77.5,33.8,77,33.9,76.8z"></path>
            <path class="white" d="M35.9,78.1c-0.1-0.3-0.5-0.2-0.6-0.7c0.5-0.2,1-0.1,1.1-0.6c-0.5-0.4-2.6-0.1-3.6-0.3c-0.8-0.1-2.6-0.4-2.7-1.1      c0.6-0.1,1.2,0.5,1.5,0.2c0.4-0.4-0.4-0.3,0.1-0.5c0.2-0.1,0.5,0,0.8-0.2c0-0.5-0.8-0.4-1.2-0.5c-1.3-0.1-2.8-0.6-3-2      c0.5,0.2,0.8,1.1,1.4,0.9c0.2-0.3,0.1-0.5,0-1c0.8,0.3,0.5,1.4,1.4,1.3c0.1-0.4,0-0.5-0.1-0.9l0.9,0c0.1-1.1-2-0.3-1.6-1.5      c0.7-0.1,1,0.3,1.6,0.1c0.1-0.6-0.3-0.1-0.4-0.7c0.3-0.3,0.7-0.2,0.8-0.7C31.9,70,30.3,70,30,70c-0.9,0.1-1.2,0.2-1.8-0.3      c0.4-0.3,0.5-0.1,0.6-0.6c-0.6-0.2-3-0.1-3-1.9c0.9,0.1,1.4,1.6,2.1,1.4c0-0.3,0-0.2-0.1-0.5l1,0.2c-0.1-0.4-0.3-0.6-0.6-0.8      c-0.7-0.5-0.5-0.2-0.3-0.6c-0.2-0.1-0.6-0.3-0.6-0.8c1-0.2,0.6,0.8,1.3,1c0.1-0.3,0-0.4-0.1-0.7c0.3,0.1,0.5,0.6,1,0.5      c0.1-0.6-0.6-0.4-0.8-1.1c0.4,0.1,0.7,0.4,1.1,0.4c1,0.1,0.1-0.6,0-0.7c0.3-0.2,0.4-0.1,0.5-0.5c-0.3-0.1-2-0.1-2.5-0.2l-1.9-0.7      c0.3-0.1,0.2,0.1,0.4-0.1c-0.2-0.2-0.3-0.2-0.4-0.4c0.6-0.3,1.5,0.9,2.2,0.5c0-0.3-0.2-0.2-0.4-0.5c0.3-0.3,0.8-0.2,0.8-0.6      c-0.3-0.1-1.7,0.2-2.8-0.3c-0.1-0.1-0.3-0.1-0.4-0.2c-0.3-0.3-0.1-0.4-0.1-0.4c0.7-0.2,0.5,0.4,1.1,0.3c0-0.3-0.1-0.4-0.2-0.7      c0.6,0.2,1,0.8,1.6,0.8c0.1-0.5-0.2-0.4-0.3-0.9c0.5-0.1,0.8,0.1,1-0.4c-0.1-0.2-0.1-0.2-0.3-0.3c-0.4-0.1-0.9,0.1-1.3-0.1      c0.1-0.2-0.1-0.1,0.3-0.2c0.4-0.1,0.8,0,0.9-0.6l-0.7,0c0.2-0.4,0.5-0.3,0.6-0.7c-0.5-0.2-1.3,0.7-1.9,0.9c-0.9,0.4-1.4-0.3-1.6-1      c0.5,0.3,0.8,0.8,1.2,0.7l-0.2-0.7c0.6-0.1,0.7,0.5,1.4,0.2c-0.1-0.3-0.2-0.1-0.3-0.4c0.4-0.2,0.6,0,0.7-0.4      c-0.8-0.5-2.4,0.5-2.8-0.7c0.7,0,0.8,0.4,1.4,0.2c0.1-0.4,0-0.2-0.2-0.5c0.2-0.2,0.4-0.2,0.7-0.3c0.3-0.2,0.4-0.2,0.4-0.6      c-0.7,0-1.1,0.5-1.5,0.2c0.2-0.3,0.1-0.1,0.3-0.3c0.2-0.2,0.2-0.1,0.2-0.4c-0.6,0-0.8,0.5-1.3,0.3c0-0.1,0,0,0-0.2      c0-0.4,0.6-0.4,0.5-1.1c-0.4,0-0.3,0.2-0.7,0c-0.3-0.8,0.2-1.7,0-2.4c-0.1-0.3-0.3-0.3-0.5-0.1c-0.2,0.3,0,1.4-0.1,1.8      c0,1-0.4,0.6-0.9,0.8c-0.1,0.4,0,0.4,0.3,0.5c0.3,0.2,0.4,0.1,0.4,0.5c-0.6,0.2-1.4-0.4-1.9-0.1c0,0.5,0.4,0.5,0.7,0.7      c-0.1,0.3-0.2,0.1-0.4,0.5c0.3,0.2,0.9,0.1,1.3,0.3c0,1.2-1.7,0.1-2.4,0.4c0.1,0.5,0.6,0.5,0.9,0.8c-0.1,0.3-0.2,0.2-0.2,0.6      c0.6,0.1,0.3-0.3,0.9-0.4c-0.1,0.2-0.1,0.4-0.1,0.7c0.4-0.1,0.3-0.4,0.6-0.3c0.1,0.1,0.2-0.1,0.1,0.3c-0.1,0.3-0.5,0.4-0.8,0.4      c-1,0-2.6-1.7-3.5-1.2c0,0.4,0.2,0.4,0.4,0.7c-0.3,0.3-0.5,0.1-0.5,0.6c0.4,0.2,0.6-0.1,1-0.2l0.3,0c0,0,0,0,0.1,0      c-0.1,0.2,0,0.1-0.2,0.2c-0.3,0.2-0.7,0.1-0.8,0.5c0.3,0.2,0.5,0.1,1,0.1c-0.1,0.5-0.8,0.7-1.1,1c-0.3,0.3-0.1,0.3-0.1,0.4      c0.5,0.3,0.7-0.4,1.1-0.5c0,0.4,0,0.5,0.2,0.7c0.4-0.1,0.4-0.3,0.5-0.7c0.1-0.4,0-0.6,0.4-0.6c0.3,0.4,0,0.7-0.3,1.1      c-0.2,0.3-0.5,0.6-0.5,1c0.7,0.1,0.6-0.6,1.2-0.7l0.1,0.6c0.9-0.1,0.4-1.3,1.1-1.2c0.3,1.1-0.8,1.3-1.6,1.7      c-1.9,0.8-1.5,0.2-2.9,0.5c0,0.4,0,0,0.1,0.2c0.1,0.2,0-0.2,0.1,0.2c-0.6,0.2-0.9-0.1-1.5,0.1c-0.2,0.8,1.2,0.7,1.6,0.8      c-0.3,0.2-0.7,0.4-0.7,0.8c0.7,0.1,1.4-0.8,2.3-0.9c0,1.1-1.9,1.1-1.6,2c0.6,0.1,0.6-0.3,1.1-0.5l0.1,0.8c0.7,0,0.5-0.6,0.8-1.1      c0.3,0.2-0.1,0.1,0.4,0.2c0.2-0.3,0.2-0.7,0.5-0.8c0.2,0.3,0,0.3,0.2,0.6c0.1,0.2,0.2,0.1,0.2,0.4c-0.6,0.5-1.2,0.2-1.5,0.6l0.1,0.1      c0,0,0,0,0,0l0.2,0.1c-0.1,0.4-0.2,0.1-0.3,0.5c0.6,0,0.8-0.2,1.3-0.2c-0.1,0.5-0.9,0.6-1.4,0.8c-0.6,0.1-1.1,0.3-1.7,0.5      c-0.9,0.3-1.8,0.4-2.8,0.6c-0.4,0.1-0.5,0.1-0.6,0.5c0.4,0.1,0.9,0,1.3,0c-0.1,0.4-0.6,0.4-0.7,0.9c0.6,0.4,1.1-0.6,1.8-0.7      c-0.1,0.4-0.6,0.8-0.4,1.2c0.6,0,0.5-0.7,1-1c0,0.5-0.4,0.9-0.1,1.4c0.5,0,0.4-0.4,0.7-0.8c0.3,0.2,0.3,0.6,0.9,0.4      c0.1-0.5-0.3-0.8,0-1.2c0.2,0.1,0.3,0.4,0.5,0.5c0.3,0.1,0.2-0.2,0.7-0.1c0.1,0.5-0.2,0.5-0.2,0.9c-0.3,0.2-0.3,0.3-0.6,0.4L18.5,73      c-0.1,0-0.3,0-0.4,0.1l-0.3,0.2l0.4,0.2l0.4,0.1l0,0.2C23.6,76.3,29.5,77.8,35.9,78.1z"></path>
            <path class="white" d="M53.8,75.6c0-0.1,0-0.2,0-0.4c0.3,0,0.5,0.1,0.5,0.2c0.7-0.2,1.4-0.5,2.1-0.8c-0.4-0.2-0.8-0.5-1-0.8      c0.2,0.2,0.3,0.2,0.5,0.2l0-0.1c0.1-0.8-2.1-1.3-2.1-2.2c0.7,0,0.6,0.7,1.3,0.5c0-0.5-0.4-0.7-0.4-1.3c0.8,0.1,0.8,1.2,1.6,0.8      c0-0.6-0.4-0.3-0.4-1l1.1-0.1c0-0.8-0.8-0.4-2.2-1.1c-0.7-0.3-2-0.7-1.4-1.5c0.8-0.1,0.5,1,1.3,0.9c0.1-0.4-0.2-1-0.2-1.5      c0.7,0.3,1.1,2.2,1.8,1.5c0.4-0.5-0.6-0.7-0.7-1.3c0.5,0.2,1.5,0.9,2.1,0.3c0-0.4-0.4-0.4-0.8-0.5c-0.3-0.1-0.7-0.2-0.9-0.4      c0.2-0.2,0.3-0.1,0.4-0.4c-0.5-0.2-1-0.1-1.9-0.5c-0.5-0.2-1.3-0.4-1.4-1l1.3,0.2c0-1-1.9-0.6-1.9-1.8c0.9-0.2,1.9,1.2,2.4,0.8      c0.1-0.1,0-0.3-0.2-0.5c-0.2-0.2-0.2-0.2-0.4-0.5l0.9-0.1c0.1-1.1-2.1-0.4-2.5-1.4c0.3-0.2,1-0.1,1.2-0.3c-0.1-0.3,0.1-0.1-0.3-0.3      c-0.4-0.2-0.8-0.2-1-0.6c0.2-0.4,0.2-0.1,0.4-0.5c-0.4-0.2-0.5-0.1-0.9-0.3c0-0.4,0.1-0.4,0.2-0.6c-0.4-0.6-0.2-0.6-0.2-1.4      c0.1-0.7,0.1-1.1-0.6-1c-0.3,0.4-0.2,0.7-0.2,1.3c0.2,1.3-0.2,0.6-0.5,1.2c0.3,0.5,0.5,0.1,0.5,0.6c-0.4,0.3-0.6,0.1-1.1,0.3      c-0.2,0.5,0.2,0.3,0.4,0.7c-0.4,0.1-1.8,0.2-1.6,0.8c0.2,0.6,1.4,0,1.8,0.1c0,0.5-0.9,0.7-1.4,0.9c-0.3,0.1-0.6,0.2-0.9,0.4      c-0.4,0.2-0.6,0.2-0.6,0.6c0.5,0.3,0.9-0.1,1.3,0.1c-0.2,0.3-0.6,0.4-0.7,0.8c1.1,0,1.2-0.8,2.1-0.8c-0.2,0.5-0.7,0.8-1.2,1      c-0.6,0.2-1.3,0.1-1.3,0.8c0.4,0.1,0.8,0,1.2,0c-0.2,0.4-0.6,0.3-0.5,0.8c0.8,0.2,0.5-0.5,1.4-0.3c-0.1,1.2-2.4,1.5-3.4,1.8      c-0.5,0.1-0.8,0.3-0.9,0.8c1.1,0,0.7-0.3,0.8,0.7c0.9,0.2,0.4-0.7,1.3-0.7c0,0.6-0.2,0.5-0.2,1.1c0.5-0.1,0.6-0.3,0.8-0.7      c0.3-0.4,0.4-0.6,0.8-0.6c0.5,0.8-0.4,1.4-0.8,1.7c-0.7,0.5-1.7,0.5-1.8,1.1l0.7,0.1c-0.1,0.4-0.3,0.4-0.7,0.5      c-0.5,0.1-0.6,0.1-0.7,0.5c0.6,0.2,0.8-0.1,1.5-0.2c-0.1,0.6-1,1-1.7,1.2c-0.6,0.2-2,0.2-1.7,1c0.6,0.2,0.8-0.2,1.4,0      c-0.1,0.6-0.4,0.4-0.5,0.9c1,0.5,1-1,1.9-1.2c0,0.5-0.2,0.8-0.1,1.3c0.8,0.1,0.8-1.8,1.7-1.9c0.4,1-0.8,1.3-1,2      c-0.2,1.1-0.2,0.8-1.3,1.7l0,0C49.2,77,51.5,76.3,53.8,75.6z"></path>
            <path class="white" d="M93.2,29.5c3.2,0,5.8-1,7.2-1.8V22h1.5v-2.7h-8.6V22h3.8v3.9c-1.2,0.4-2.5,0.7-3.8,0.7c-3.9,0-6.6-2.1-6.6-6.5      c0-4.1,2.4-6.7,6.5-6.7c1.4,0,2.8,0.3,3.8,0.6v2.8h3.3v-4.7c-1.6-0.8-4.3-1.6-7.2-1.6c-6.4,0-10,3.8-10,9.6      C83.3,26.1,87.2,29.5,93.2,29.5z"></path>
            <path class="white" d="M104.5,29.1h8.4v-2.8h-2.5v-3.9h3.3l3.8,6.7h4.6v-2.8h-2.3l-2.8-4.9c2.5-0.8,3.7-2.8,3.7-4.9      c0-2.8-2-5.8-7.4-5.8h-8.8v2.8h2.5v12.8h-2.5V29.1L104.5,29.1z M110.4,19.7v-6.1h2.9c2.9,0,3.9,1.5,3.9,3.1c0,1.6-1,3.1-3.9,3.1      H110.4z"></path>
            <polygon class="white" points="124.6,29.1 139.8,29.1 139.8,23.6 136.6,23.6 136.6,26.3 130.6,26.3 130.6,21.3 137.4,21.3 137.4,18.5       130.6,18.5 130.6,13.6 136.5,13.6 136.5,16.2 139.7,16.2 139.7,10.8 124.6,10.8 124.6,13.6 127.1,13.6 127.1,26.3 124.6,26.3 "></polygon>
            <polygon class="white" points="142.9,29.1 158.1,29.1 158.1,23.6 154.9,23.6 154.9,26.3 148.9,26.3 148.9,21.3 155.7,21.3 155.7,18.5       148.9,18.5 148.9,13.6 154.8,13.6 154.8,16.2 158,16.2 158,10.8 142.9,10.8 142.9,13.6 145.4,13.6 145.4,26.3 142.9,26.3 "></polygon>
            <polygon class="white" points="161.2,29.1 169.4,29.1 169.4,26.3 167,26.3 167,15.9 176.2,29.1 179.3,29.1 179.3,13.6 181.8,13.6       181.8,10.8 173.5,10.8 173.5,13.6 176,13.6 176,23.5 167.2,10.8 161.2,10.8 161.2,13.6 163.7,13.6 163.7,26.3 161.2,26.3 "></polygon>
            <path class="white" d="M94.3,65.1c5.7,0,10.8-2,10.8-8.2c0-10.8-15.2-7.5-15.2-13.6c0-2.6,2.8-3.4,5.5-3.4c1.5,0,3,0.2,4,0.4v3.8h4.9      v-6.9c-2.3-0.8-5.8-1.5-9-1.5c-5.6,0-10.6,2.3-10.6,8.2c0,10.4,15.2,6.9,15.2,13.4c0,2.8-2.8,3.5-5.9,3.5c-2.1,0-3.9-0.4-4.9-0.6      v-3.7h-4.8v7.1C86.9,64.3,90.6,65.1,94.3,65.1z"></path>
            <polygon class="white" points="108.7,64.6 121.8,64.6 121.8,60.3 118,60.3 118,40.5 121.8,40.5 121.8,36.2 108.7,36.2 108.7,40.5       112.6,40.5 112.6,60.3 108.7,60.3 "></polygon>
            <path class="white" d="M125.5,64.6H139c10.3,0,15.2-5.8,15.2-14.2c0-8.4-4.9-14.2-15.2-14.2h-13.5v4.3h3.8v19.8h-3.8V64.6L125.5,64.6z      M134.7,60.3V40.5h4.2c6.7,0,9.7,3.7,9.7,9.9c0,6.1-3,9.9-9.7,9.9H134.7z"></path>
            <polygon class="white" points="157.3,64.6 180.8,64.6 180.8,56 175.8,56 175.8,60.3 166.5,60.3 166.5,52.5 177.1,52.5 177.1,48.2       166.5,48.2 166.5,40.5 175.6,40.5 175.6,44.5 180.6,44.5 180.6,36.2 157.3,36.2 157.3,40.5 161.1,40.5 161.1,60.3 157.3,60.3 "></polygon>
        </svg>