<svg xmlns="http://www.w3.org/2000/svg" viewBox="0 0 60 54.99"><defs><style>.cls-1{fill:#030104;}</style></defs><title>1Ресурс 1</title><g id="Слой_2" data-name="Слой 2"><g id="Capa_1" data-name="Capa 1"><path class="cls-1" d="M59.86,19.61A19.37,19.37,0,0,0,40.74,0a18.15,18.15,0,0,0-3.4.31c-.65.12-1.29.29-1.92.47l5.32,18.83Z"/><path class="cls-1" d="M17.54,22.31a10.86,10.86,0,0,0-2.33-6.13c-1.89-2.38-4.78-3.95-8.57-4.72a2.35,2.35,0,0,0-1.79-.82H2.37a2.37,2.37,0,1,0,0,4.73H4.85a2.3,2.3,0,0,0,1.51-.56,10.74,10.74,0,0,1,6.21,3.41,7.52,7.52,0,0,1,1.64,4.1h-.1c0,10.36,10.27,18.77,23,18.77S60,32.69,60,22.32C60,22.32,17.54,22.32,17.54,22.31Z"/><path class="cls-1" d="M28,41.92a6.54,6.54,0,1,0,6.53,6.53A6.54,6.54,0,0,0,28,41.92Zm0,9.73a3.2,3.2,0,1,1,3.19-3.19A3.19,3.19,0,0,1,28,51.65Z"/><path class="cls-1" d="M45.64,41.92a6.54,6.54,0,1,0,6.53,6.53A6.55,6.55,0,0,0,45.64,41.92Zm0,9.73a3.2,3.2,0,1,1,3.2-3.19A3.19,3.19,0,0,1,45.64,51.65Z"/></g></g></svg>