<?xml version="1.0" encoding="iso-8859-1"?>
<!-- Generator: Adobe Illustrator 19.0.0, SVG Export Plug-In . SVG Version: 6.00 Build 0)  -->
<svg version="1.1" id="Capa_1" xmlns="http://www.w3.org/2000/svg" xmlns:xlink="http://www.w3.org/1999/xlink" x="0px" y="0px"
	 viewBox="0 0 512.034 512.034" style="enable-background:new 0 0 512.034 512.034;" xml:space="preserve">
<g>
	<g>
		<path d="M336.024,240.017c-26.464,0-48,21.536-48,48c0,8.832,7.168,16,16,16c8.832,0,16-7.168,16-16c0-8.832,7.2-16,16-16
			s16,7.168,16,16c0,8.832,7.168,16,16,16c8.832,0,16-7.168,16-16C384.024,261.553,362.488,240.017,336.024,240.017z"/>
	</g>
</g>
<g>
	<g>
		<path d="M176.024,240.017c-26.464,0-48,21.536-48,48c0,8.832,7.168,16,16,16c8.832,0,16-7.168,16-16c0-8.832,7.168-16,16-16
			c8.832,0,16,7.168,16,16c0,8.832,7.168,16,16,16c8.832,0,16-7.168,16-16C224.024,261.553,202.488,240.017,176.024,240.017z"/>
	</g>
</g>
<g>
	<g>
		<path d="M506.328,451.761c-25.024-20.928-40.096-78.432-48.672-132.704c30.688-4.704,54.368-31.04,54.368-63.04
			c0-35.296-28.704-64-64-64c0-105.888-86.112-192-192-192s-192,86.112-192,192c-35.296,0-64,28.704-64,64
			c0,32,23.68,58.336,54.368,63.04c-8.608,54.272-23.68,111.776-48.672,132.736c-5.152,4.32-7.072,11.392-4.736,17.728
			c2.304,6.272,8.32,10.496,15.04,10.496h134.08c30.4,20.192,66.784,32,105.92,32s75.52-11.808,105.92-32h134.08
			c6.72,0,12.736-4.224,15.04-10.528C513.368,463.185,511.48,456.081,506.328,451.761z M416.024,320.017
			c0,22.784-4.928,44.352-13.568,64H301.08c-6.624-18.592-24.224-32-45.056-32c-26.464,0-48,21.536-48,48s21.536,48,48,48
			c20.832,0,38.432-13.408,45.056-32h82.144c-29.248,38.624-75.136,64-127.2,64c-88.224,0-160-71.776-160-160v-96.48
			c102.368-2.464,158.464-27.392,188.544-53.088c31.904,24.192,75.904,40.32,131.456,47.968V320.017z"/>
	</g>
</g>
<g>
</g>
<g>
</g>
<g>
</g>
<g>
</g>
<g>
</g>
<g>
</g>
<g>
</g>
<g>
</g>
<g>
</g>
<g>
</g>
<g>
</g>
<g>
</g>
<g>
</g>
<g>
</g>
<g>
</g>
</svg>
