<?xml version="1.0" encoding="iso-8859-1"?>
<!-- Generator: Adobe Illustrator 16.0.0, SVG Export Plug-In . SVG Version: 6.00 Build 0)  -->
<!DOCTYPE svg PUBLIC "-//W3C//DTD SVG 1.1//EN" "http://www.w3.org/Graphics/SVG/1.1/DTD/svg11.dtd">
<svg version="1.1" id="Capa_1" xmlns="http://www.w3.org/2000/svg" xmlns:xlink="http://www.w3.org/1999/xlink" x="0px" y="0px"
	 width="620.742px" height="620.742px" viewBox="0 0 620.742 620.742" style="enable-background:new 0 0 620.742 620.742;"
	 xml:space="preserve">
<g>
	<path style="fill:#27241F;" d="M530.957,377.307l-81.271,81.072c-14.563,14.544-27.419,4.229-30.833,0.986l-81.536-81.802
		l-3.546-3.537c-7.699-8.163-23.267-27.562,3.546-27.59c0.019,0,0.019,0,0.019,0l193.603,0.228
		C531.193,346.684,560.158,348.162,530.957,377.307L530.957,377.307z M271.698,349.556c0,16.298-12.818,29.818-29.448,32.245v0.095
		c0,0-8.145,1.318-9.225,10.036l-13.207,106.192c0,0-1.982,24.537-23.067,28.633c-21.28,4.096-37.64,0-37.64,0
		s-18.308-0.626-21.764-29.941c-2.655-22.755-10.548-78.574-14.032-102.836c-1.759-12.159-11.477-12.254-11.477-12.254l0.033-0.066
		c-16.108-2.816-28.344-16.175-28.344-32.122V247.312c0-18.156,15.535-32.729,34.672-32.729h118.769
		c19.152,0,34.72,14.572,34.72,32.729v102.243H271.698L271.698,349.556z M179.139,92.151c27.391,0,49.591,22.214,49.591,49.6
		c0,27.41-22.209,49.604-49.591,49.604c-27.386,0-49.6-22.195-49.6-49.604C129.54,114.375,151.753,92.151,179.139,92.151
		L179.139,92.151z M339.866,239.448l77.318-77.318l0.019-0.019l1.508-1.503c3.84-3.612,15.084-11.79,28.377,1.522
		c0.009,0,0.009,0.009,0.009,0.009l81.433,81.466c0.02,0,0.038,0.028,0.057,0.028c25.306,25.31,0.038,31.292,0,31.292H339.487
		C336.008,274.158,311.613,267.702,339.866,239.448L339.866,239.448z M587.635,24.376H33.094C14.814,24.376,0,38.977,0,56.986
		v506.785c0,17.995,14.814,32.596,33.094,32.596h554.541c18.279,0,33.107-14.601,33.107-32.596V56.986
		C620.742,38.977,605.914,24.376,587.635,24.376L587.635,24.376z"/>
</g>
<g>
</g>
<g>
</g>
<g>
</g>
<g>
</g>
<g>
</g>
<g>
</g>
<g>
</g>
<g>
</g>
<g>
</g>
<g>
</g>
<g>
</g>
<g>
</g>
<g>
</g>
<g>
</g>
<g>
</g>
</svg>
