<?xml version="1.0" encoding="iso-8859-1"?>
<!-- Generator: Adobe Illustrator 19.0.0, SVG Export Plug-In . SVG Version: 6.00 Build 0)  -->
<svg version="1.1" id="Capa_1" xmlns="http://www.w3.org/2000/svg" xmlns:xlink="http://www.w3.org/1999/xlink" x="0px" y="0px"
	 viewBox="0 0 512 512" style="enable-background:new 0 0 512 512;" xml:space="preserve">
<g>
	<g>
		<path d="M497,482h-17.618L454.296,70.591C451.952,31.011,419.066,0,379.428,0H132.572C92.934,0,60.048,31.011,57.704,70.591
			L32.618,482H15c-8.291,0-15,6.709-15,15c0,8.291,6.709,15,15,15h60c8.291,0,15-6.709,15-15c0-8.291-6.709-15-15-15H62.662
			L86.607,90H121v15c0,19.53,12.578,36.024,30,42.237v187.526c-17.422,6.213-30,22.707-30,42.237c0,24.814,20.186,45,45,45h180
			c24.814,0,45-20.186,45-45c0-19.53-12.578-36.024-30-42.237V147.237c17.422-6.213,30-22.707,30-42.237V90h34.393l23.945,392H437
			c-8.291,0-15,6.709-15,15c0,8.291,6.709,15,15,15h60c8.291,0,15-6.709,15-15C512,488.709,505.291,482,497,482z M166,120
			c-8.276,0-15-6.724-15-15V90h30v15C181,113.276,174.276,120,166,120z M331,332H181v-30h150V332z M331,272H181V147.237
			c17.422-6.213,30-22.707,30-42.237V90h90v15c0,19.53,12.578,36.024,30,42.237V272z M361,105c0,8.276-6.724,15-15,15
			s-15-6.724-15-15V90h30V105z"/>
	</g>
</g>
<g>
</g>
<g>
</g>
<g>
</g>
<g>
</g>
<g>
</g>
<g>
</g>
<g>
</g>
<g>
</g>
<g>
</g>
<g>
</g>
<g>
</g>
<g>
</g>
<g>
</g>
<g>
</g>
<g>
</g>
</svg>
